# MagicaVoxel @ Ephtracy

# group
o 

# material
mtllib rioboo-1.mtl
usemtl palette

# normals
vn -1 0 0
vn 1 0 0
vn 0 0 1
vn 0 0 -1
vn 0 -1 0
vn 0 1 0

# texcoords
vt 0.0136719 0.5
vt 0.0683594 0.5
vt 0.369141 0.5
vt 0.533203 0.5
vt 0.603516 0.5
vt 0.767578 0.5
vt 0.810547 0.5
vt 0.865234 0.5
vt 0.958984 0.5
vt 0.962891 0.5
vt 0.994141 0.5

# verts
v -0.5 0.3 0
v -0.5 0.3 -0.2
v -0.5 0.4 0
v -0.5 0.4 -0.2
v -0.5 0.5 0
v -0.5 0.5 -0.2
v -0.4 0.5 0
v -0.4 0.5 -0.2
v -0.4 0.6 0
v -0.4 0.6 -0.2
v -0.3 0 0
v -0.3 0 -0.2
v -0.3 0.1 0
v -0.3 0.1 -0.2
v -0.3 0.2 0.1
v -0.3 0.2 0
v -0.3 0.2 -0.2
v -0.3 0.2 -0.3
v -0.3 0.3 0.1
v -0.3 0.3 -0.3
v -0.3 0.5 0
v -0.3 0.5 -0.2
v -0.3 0.6 0.1
v -0.3 0.6 0
v -0.3 0.6 -0.2
v -0.3 0.6 -0.3
v -0.2 0.5 0.4
v -0.2 0.5 0.1
v -0.2 0.6 0.4
v -0.2 0.6 0.3
v -0.2 0.6 0.1
v -0.2 0.6 0
v -0.2 0.7 0.4
v -0.2 0.7 0.3
v -0.2 0.8 0.4
v -0.2 0.8 0
v -0.2 0.9 0.4
v -0.2 0.9 0
v -0.1 0.6 0.5
v -0.1 0.6 0.4
v -0.1 0.7 0.5
v -0.1 0.7 0.4
v 0.1 0 0
v 0.1 0 -0.2
v 0.1 0.1 0
v 0.1 0.1 -0.2
v 0.1 0.2 0
v 0.1 0.2 -0.2
v 0.4 0 0.1
v 0.4 0 0
v 0.4 0.3 0.1
v 0.4 0.3 0
v 0.4 0.3 -0.1
v 0.4 0.4 0.1
v 0.4 0.4 -0.1
v 0.4 0.5 0.1
v 0.4 0.5 0
v 0.4 0.5 -0.1
v -0.4 0.3 0
v -0.4 0.3 -0.2
v -0.4 0.4 0
v -0.4 0.4 -0.2
v -0.4 0.5 0
v -0.4 0.5 -0.2
v -0.1 0 0
v -0.1 0 -0.2
v -0.1 0.1 0
v -0.1 0.1 -0.2
v -0.1 0.2 0
v -0.1 0.2 -0.2
v 0.1 0.6 0.5
v 0.1 0.6 0.4
v 0.1 0.7 0.5
v 0.1 0.7 0.4
v 0.2 0.5 0.4
v 0.2 0.5 0.1
v 0.2 0.6 0.4
v 0.2 0.6 0.3
v 0.2 0.6 0.1
v 0.2 0.6 0
v 0.2 0.7 0.4
v 0.2 0.7 0.3
v 0.2 0.8 0.4
v 0.2 0.8 0
v 0.2 0.9 0.4
v 0.2 0.9 0
v 0.3 0 0
v 0.3 0 -0.2
v 0.3 0.1 0
v 0.3 0.1 -0.2
v 0.3 0.2 0.1
v 0.3 0.2 0
v 0.3 0.2 -0.2
v 0.3 0.2 -0.3
v 0.3 0.3 0.1
v 0.3 0.3 -0.3
v 0.3 0.5 0
v 0.3 0.5 -0.2
v 0.3 0.6 0.1
v 0.3 0.6 0
v 0.3 0.6 -0.2
v 0.3 0.6 -0.3
v 0.4 0.5 0
v 0.4 0.5 -0.1
v 0.4 0.5 -0.2
v 0.4 0.6 0
v 0.4 0.6 -0.2
v 0.5 0 0.1
v 0.5 0 0
v 0.5 0.3 0.1
v 0.5 0.3 0
v 0.5 0.3 -0.1
v 0.5 0.4 0.1
v 0.5 0.4 -0.1
v 0.5 0.5 0.1
v 0.5 0.5 -0.1
v -0.1 0.6 0.5
v -0.1 0.7 0.5
v 0.1 0.6 0.5
v 0.1 0.7 0.5
v -0.2 0.5 0.4
v -0.2 0.6 0.4
v -0.2 0.7 0.4
v -0.2 0.8 0.4
v -0.2 0.9 0.4
v -0.1 0.6 0.4
v -0.1 0.7 0.4
v -0.1 0.8 0.4
v -0.1 0.9 0.4
v 0.1 0.6 0.4
v 0.1 0.7 0.4
v 0.1 0.8 0.4
v 0.1 0.9 0.4
v 0.2 0.5 0.4
v 0.2 0.6 0.4
v 0.2 0.7 0.4
v 0.2 0.8 0.4
v 0.2 0.9 0.4
v -0.3 0.2 0.1
v -0.3 0.3 0.1
v -0.3 0.6 0.1
v -0.2 0.3 0.1
v -0.2 0.5 0.1
v -0.2 0.6 0.1
v -0.1 0.3 0.1
v -0.1 0.5 0.1
v 0.1 0.3 0.1
v 0.1 0.5 0.1
v 0.2 0.3 0.1
v 0.2 0.5 0.1
v 0.2 0.6 0.1
v 0.3 0.2 0.1
v 0.3 0.3 0.1
v 0.3 0.6 0.1
v 0.4 0 0.1
v 0.4 0.3 0.1
v 0.4 0.4 0.1
v 0.4 0.5 0.1
v 0.5 0 0.1
v 0.5 0.3 0.1
v 0.5 0.4 0.1
v 0.5 0.5 0.1
v -0.5 0.3 0
v -0.5 0.4 0
v -0.5 0.5 0
v -0.4 0.3 0
v -0.4 0.4 0
v -0.4 0.5 0
v -0.4 0.6 0
v -0.3 0 0
v -0.3 0.1 0
v -0.3 0.2 0
v -0.3 0.5 0
v -0.3 0.6 0
v -0.1 0 0
v -0.1 0.1 0
v -0.1 0.2 0
v 0.1 0 0
v 0.1 0.1 0
v 0.1 0.2 0
v 0.3 0 0
v 0.3 0.1 0
v 0.3 0.2 0
v 0.3 0.5 0
v 0.3 0.6 0
v 0.4 0.5 0
v 0.4 0.6 0
v -0.2 0.6 0
v -0.2 0.8 0
v -0.2 0.9 0
v -0.1 0.6 0
v 0.1 0.6 0
v 0.2 0.6 0
v 0.2 0.8 0
v 0.2 0.9 0
v 0.4 0 0
v 0.4 0.3 0
v 0.5 0 0
v 0.5 0.3 0
v 0.4 0.3 -0.1
v 0.4 0.4 -0.1
v 0.4 0.5 -0.1
v 0.5 0.3 -0.1
v 0.5 0.4 -0.1
v 0.5 0.5 -0.1
v -0.5 0.3 -0.2
v -0.5 0.4 -0.2
v -0.5 0.5 -0.2
v -0.4 0.3 -0.2
v -0.4 0.4 -0.2
v -0.4 0.5 -0.2
v -0.4 0.6 -0.2
v -0.3 0 -0.2
v -0.3 0.1 -0.2
v -0.3 0.2 -0.2
v -0.3 0.5 -0.2
v -0.3 0.6 -0.2
v -0.1 0 -0.2
v -0.1 0.1 -0.2
v -0.1 0.2 -0.2
v 0.1 0 -0.2
v 0.1 0.1 -0.2
v 0.1 0.2 -0.2
v 0.3 0 -0.2
v 0.3 0.1 -0.2
v 0.3 0.2 -0.2
v 0.3 0.5 -0.2
v 0.3 0.6 -0.2
v 0.4 0.5 -0.2
v 0.4 0.6 -0.2
v -0.3 0.2 -0.3
v -0.3 0.3 -0.3
v -0.3 0.6 -0.3
v -0.2 0.3 -0.3
v -0.2 0.6 -0.3
v -0.1 0.3 -0.3
v -0.1 0.6 -0.3
v 0.1 0.3 -0.3
v 0.1 0.6 -0.3
v 0.2 0.3 -0.3
v 0.2 0.6 -0.3
v 0.3 0.2 -0.3
v 0.3 0.3 -0.3
v 0.3 0.6 -0.3
v 0.4 0 0.1
v 0.5 0 0.1
v -0.3 0 0
v -0.1 0 0
v 0.1 0 0
v 0.3 0 0
v 0.4 0 0
v 0.5 0 0
v -0.3 0 -0.2
v -0.1 0 -0.2
v 0.1 0 -0.2
v 0.3 0 -0.2
v -0.3 0.2 0.1
v 0.3 0.2 0.1
v -0.3 0.2 0
v -0.1 0.2 0
v 0.1 0.2 0
v 0.3 0.2 0
v -0.3 0.2 -0.2
v -0.1 0.2 -0.2
v 0.1 0.2 -0.2
v 0.3 0.2 -0.2
v -0.3 0.2 -0.3
v 0.3 0.2 -0.3
v -0.5 0.3 0
v -0.4 0.3 0
v 0.4 0.3 0
v 0.5 0.3 0
v 0.4 0.3 -0.1
v 0.5 0.3 -0.1
v -0.5 0.3 -0.2
v -0.4 0.3 -0.2
v -0.2 0.5 0.4
v 0.2 0.5 0.4
v -0.2 0.5 0.1
v -0.1 0.5 0.1
v 0.1 0.5 0.1
v 0.2 0.5 0.1
v -0.4 0.5 0
v -0.3 0.5 0
v 0.3 0.5 0
v 0.4 0.5 0
v 0.4 0.5 -0.1
v -0.4 0.5 -0.2
v -0.3 0.5 -0.2
v 0.3 0.5 -0.2
v 0.4 0.5 -0.2
v -0.1 0.6 0.5
v 0.1 0.6 0.5
v -0.1 0.6 0.4
v 0.1 0.6 0.4
v 0.4 0.5 0.1
v 0.5 0.5 0.1
v -0.5 0.5 0
v -0.4 0.5 0
v 0.4 0.5 0
v 0.4 0.5 -0.1
v 0.5 0.5 -0.1
v -0.5 0.5 -0.2
v -0.4 0.5 -0.2
v -0.3 0.6 0.1
v -0.2 0.6 0.1
v 0.2 0.6 0.1
v 0.3 0.6 0.1
v -0.4 0.6 0
v -0.3 0.6 0
v -0.2 0.6 0
v -0.1 0.6 0
v 0.1 0.6 0
v 0.2 0.6 0
v 0.3 0.6 0
v 0.4 0.6 0
v -0.4 0.6 -0.2
v -0.3 0.6 -0.2
v 0.3 0.6 -0.2
v 0.4 0.6 -0.2
v -0.3 0.6 -0.3
v -0.2 0.6 -0.3
v -0.1 0.6 -0.3
v 0.1 0.6 -0.3
v 0.2 0.6 -0.3
v 0.3 0.6 -0.3
v -0.1 0.7 0.5
v 0.1 0.7 0.5
v -0.1 0.7 0.4
v 0.1 0.7 0.4
v -0.2 0.9 0.4
v -0.1 0.9 0.4
v 0.1 0.9 0.4
v 0.2 0.9 0.4
v -0.1 0.9 0.1
v 0.1 0.9 0.1
v -0.2 0.9 0
v 0.2 0.9 0

# faces
f 3/1/1 2/1/1 1/1/1
f 4/1/1 2/1/1 3/1/1
f 5/9/1 4/9/1 3/9/1
f 6/9/1 4/9/1 5/9/1
f 9/9/1 8/9/1 7/9/1
f 10/9/1 8/9/1 9/9/1
f 13/3/1 12/3/1 11/3/1
f 14/3/1 12/3/1 13/3/1
f 16/7/1 14/7/1 13/7/1
f 17/7/1 14/7/1 16/7/1
f 19/7/1 17/7/1 16/7/1
f 19/7/1 18/7/1 17/7/1
f 19/7/1 16/7/1 15/7/1
f 20/7/1 18/7/1 19/7/1
f 21/9/1 20/9/1 19/9/1
f 22/9/1 20/9/1 21/9/1
f 23/9/1 21/9/1 19/9/1
f 24/9/1 21/9/1 23/9/1
f 25/9/1 20/9/1 22/9/1
f 26/9/1 20/9/1 25/9/1
f 29/1/1 28/1/1 27/1/1
f 30/1/1 28/1/1 29/1/1
f 31/1/1 28/1/1 30/1/1
f 33/11/1 30/11/1 29/11/1
f 34/1/1 32/1/1 31/1/1
f 34/11/1 30/11/1 33/11/1
f 34/1/1 31/1/1 30/1/1
f 35/1/1 34/1/1 33/1/1
f 36/1/1 32/1/1 34/1/1
f 36/1/1 34/1/1 35/1/1
f 37/10/1 36/10/1 35/10/1
f 38/10/1 36/10/1 37/10/1
f 41/3/1 40/3/1 39/3/1
f 42/3/1 40/3/1 41/3/1
f 45/3/1 44/3/1 43/3/1
f 46/3/1 44/3/1 45/3/1
f 47/7/1 46/7/1 45/7/1
f 48/7/1 46/7/1 47/7/1
f 51/8/1 50/8/1 49/8/1
f 52/8/1 50/8/1 51/8/1
f 54/1/1 52/1/1 51/1/1
f 54/1/1 53/1/1 52/1/1
f 55/1/1 53/1/1 54/1/1
f 56/9/1 55/9/1 54/9/1
f 57/9/1 55/9/1 56/9/1
f 58/9/1 55/9/1 57/9/1
f 59/1/2 60/1/2 61/1/2
f 61/1/2 60/1/2 62/1/2
f 61/9/2 62/9/2 63/9/2
f 63/9/2 62/9/2 64/9/2
f 65/3/2 66/3/2 67/3/2
f 67/3/2 66/3/2 68/3/2
f 67/7/2 68/7/2 69/7/2
f 69/7/2 68/7/2 70/7/2
f 71/3/2 72/3/2 73/3/2
f 73/3/2 72/3/2 74/3/2
f 75/1/2 76/1/2 77/1/2
f 77/1/2 76/1/2 78/1/2
f 78/1/2 76/1/2 79/1/2
f 77/11/2 78/11/2 81/11/2
f 79/1/2 80/1/2 82/1/2
f 81/11/2 78/11/2 82/11/2
f 78/1/2 79/1/2 82/1/2
f 81/1/2 82/1/2 83/1/2
f 82/1/2 80/1/2 84/1/2
f 83/1/2 82/1/2 84/1/2
f 83/10/2 84/10/2 85/10/2
f 85/10/2 84/10/2 86/10/2
f 87/3/2 88/3/2 89/3/2
f 89/3/2 88/3/2 90/3/2
f 89/7/2 90/7/2 92/7/2
f 92/7/2 90/7/2 93/7/2
f 92/7/2 93/7/2 95/7/2
f 93/7/2 94/7/2 95/7/2
f 91/7/2 92/7/2 95/7/2
f 95/7/2 94/7/2 96/7/2
f 95/9/2 96/9/2 97/9/2
f 97/9/2 96/9/2 98/9/2
f 95/9/2 97/9/2 99/9/2
f 99/9/2 97/9/2 100/9/2
f 98/9/2 96/9/2 101/9/2
f 101/9/2 96/9/2 102/9/2
f 103/9/2 104/9/2 106/9/2
f 104/9/2 105/9/2 106/9/2
f 106/9/2 105/9/2 107/9/2
f 108/8/2 109/8/2 110/8/2
f 110/8/2 109/8/2 111/8/2
f 110/1/2 111/1/2 113/1/2
f 111/1/2 112/1/2 113/1/2
f 113/1/2 112/1/2 114/1/2
f 113/9/2 114/9/2 115/9/2
f 115/9/2 114/9/2 116/9/2
f 119/3/3 118/3/3 117/3/3
f 120/3/3 118/3/3 119/3/3
f 126/1/3 122/1/3 121/1/3
f 126/11/3 123/11/3 122/11/3
f 127/1/3 124/1/3 123/1/3
f 127/11/3 123/11/3 126/11/3
f 128/10/3 125/10/3 124/10/3
f 128/1/3 124/1/3 127/1/3
f 129/10/3 125/10/3 128/10/3
f 130/1/3 126/1/3 121/1/3
f 131/1/3 129/1/3 128/1/3
f 131/1/3 128/1/3 127/1/3
f 132/1/3 129/1/3 131/1/3
f 133/1/3 129/1/3 132/1/3
f 134/1/3 130/1/3 121/1/3
f 135/11/3 131/11/3 130/11/3
f 135/1/3 130/1/3 134/1/3
f 136/1/3 132/1/3 131/1/3
f 136/11/3 131/11/3 135/11/3
f 137/10/3 133/10/3 132/10/3
f 137/1/3 132/1/3 136/1/3
f 138/10/3 133/10/3 137/10/3
f 142/7/3 140/7/3 139/7/3
f 142/9/3 141/9/3 140/9/3
f 143/9/3 141/9/3 142/9/3
f 144/9/3 141/9/3 143/9/3
f 145/7/3 142/7/3 139/7/3
f 145/4/3 143/4/3 142/4/3
f 146/4/3 143/4/3 145/4/3
f 147/7/3 145/7/3 139/7/3
f 147/9/3 146/9/3 145/9/3
f 148/9/3 146/9/3 147/9/3
f 149/7/3 147/7/3 139/7/3
f 149/4/3 148/4/3 147/4/3
f 150/4/3 148/4/3 149/4/3
f 152/7/3 149/7/3 139/7/3
f 153/9/3 150/9/3 149/9/3
f 153/7/3 149/7/3 152/7/3
f 153/9/3 151/9/3 150/9/3
f 154/9/3 151/9/3 153/9/3
f 159/8/3 156/8/3 155/8/3
f 160/1/3 157/1/3 156/1/3
f 160/8/3 156/8/3 159/8/3
f 161/9/3 158/9/3 157/9/3
f 161/1/3 157/1/3 160/1/3
f 162/9/3 158/9/3 161/9/3
f 166/1/3 164/1/3 163/1/3
f 167/9/3 165/9/3 164/9/3
f 167/1/3 164/1/3 166/1/3
f 168/9/3 165/9/3 167/9/3
f 173/9/3 169/9/3 168/9/3
f 174/9/3 169/9/3 173/9/3
f 175/3/3 171/3/3 170/3/3
f 176/7/3 172/7/3 171/7/3
f 176/3/3 171/3/3 175/3/3
f 177/7/3 172/7/3 176/7/3
f 181/3/3 179/3/3 178/3/3
f 182/7/3 180/7/3 179/7/3
f 182/3/3 179/3/3 181/3/3
f 183/7/3 180/7/3 182/7/3
f 186/9/3 185/9/3 184/9/3
f 187/9/3 185/9/3 186/9/3
f 188/1/4 189/1/4 191/1/4
f 191/1/4 189/1/4 192/1/4
f 192/1/4 189/1/4 193/1/4
f 189/10/4 190/10/4 194/10/4
f 193/1/4 189/1/4 194/1/4
f 194/10/4 190/10/4 195/10/4
f 196/8/4 197/8/4 198/8/4
f 198/8/4 197/8/4 199/8/4
f 200/1/4 201/1/4 203/1/4
f 201/9/4 202/9/4 204/9/4
f 203/1/4 201/1/4 204/1/4
f 204/9/4 202/9/4 205/9/4
f 206/1/4 207/1/4 209/1/4
f 207/9/4 208/9/4 210/9/4
f 209/1/4 207/1/4 210/1/4
f 210/9/4 208/9/4 211/9/4
f 211/9/4 212/9/4 216/9/4
f 216/9/4 212/9/4 217/9/4
f 213/3/4 214/3/4 218/3/4
f 214/7/4 215/7/4 219/7/4
f 218/3/4 214/3/4 219/3/4
f 219/7/4 215/7/4 220/7/4
f 221/3/4 222/3/4 224/3/4
f 222/7/4 223/7/4 225/7/4
f 224/3/4 222/3/4 225/3/4
f 225/7/4 223/7/4 226/7/4
f 227/9/4 228/9/4 229/9/4
f 229/9/4 228/9/4 230/9/4
f 231/7/4 232/7/4 234/7/4
f 232/9/4 233/9/4 234/9/4
f 234/9/4 233/9/4 235/9/4
f 231/7/4 234/7/4 236/7/4
f 234/4/4 235/4/4 236/4/4
f 236/4/4 235/4/4 237/4/4
f 231/7/4 236/7/4 238/7/4
f 236/9/4 237/9/4 238/9/4
f 238/9/4 237/9/4 239/9/4
f 231/7/4 238/7/4 240/7/4
f 238/4/4 239/4/4 240/4/4
f 240/4/4 239/4/4 241/4/4
f 231/7/4 240/7/4 242/7/4
f 240/9/4 241/9/4 243/9/4
f 242/7/4 240/7/4 243/7/4
f 243/9/4 241/9/4 244/9/4
f 251/8/5 246/8/5 245/8/5
f 252/8/5 246/8/5 251/8/5
f 253/3/5 248/3/5 247/3/5
f 254/3/5 248/3/5 253/3/5
f 255/3/5 250/3/5 249/3/5
f 256/3/5 250/3/5 255/3/5
f 259/7/5 258/7/5 257/7/5
f 260/7/5 258/7/5 259/7/5
f 261/7/5 258/7/5 260/7/5
f 262/7/5 258/7/5 261/7/5
f 264/7/5 261/7/5 260/7/5
f 265/7/5 261/7/5 264/7/5
f 267/7/5 264/7/5 263/7/5
f 267/7/5 266/7/5 265/7/5
f 267/7/5 265/7/5 264/7/5
f 268/7/5 266/7/5 267/7/5
f 273/1/5 272/1/5 271/1/5
f 274/1/5 272/1/5 273/1/5
f 275/1/5 270/1/5 269/1/5
f 276/1/5 270/1/5 275/1/5
f 279/1/5 278/1/5 277/1/5
f 280/1/5 278/1/5 279/1/5
f 281/1/5 278/1/5 280/1/5
f 282/1/5 278/1/5 281/1/5
f 287/9/5 286/9/5 285/9/5
f 288/9/5 284/9/5 283/9/5
f 289/9/5 284/9/5 288/9/5
f 290/9/5 287/9/5 285/9/5
f 291/9/5 287/9/5 290/9/5
f 294/3/5 293/3/5 292/3/5
f 295/3/5 293/3/5 294/3/5
f 296/9/6 297/9/6 300/9/6
f 300/9/6 297/9/6 301/9/6
f 301/9/6 297/9/6 302/9/6
f 298/9/6 299/9/6 303/9/6
f 303/9/6 299/9/6 304/9/6
f 305/9/6 306/9/6 310/9/6
f 310/9/6 306/9/6 311/9/6
f 307/9/6 308/9/6 314/9/6
f 314/9/6 308/9/6 315/9/6
f 309/9/6 310/9/6 317/9/6
f 310/9/6 311/9/6 317/9/6
f 317/9/6 311/9/6 318/9/6
f 315/9/6 316/9/6 319/9/6
f 314/9/6 315/9/6 319/9/6
f 319/9/6 316/9/6 320/9/6
f 318/9/6 311/9/6 321/9/6
f 311/4/6 312/4/6 322/4/6
f 321/9/6 311/9/6 322/9/6
f 312/9/6 313/9/6 323/9/6
f 322/4/6 312/4/6 323/4/6
f 313/4/6 314/4/6 324/4/6
f 323/9/6 313/9/6 324/9/6
f 314/9/6 319/9/6 325/9/6
f 324/4/6 314/4/6 325/4/6
f 325/9/6 319/9/6 326/9/6
f 327/3/6 328/3/6 329/3/6
f 329/3/6 328/3/6 330/3/6
f 331/10/6 332/10/6 335/10/6
f 332/1/6 333/1/6 335/1/6
f 333/10/6 334/10/6 336/10/6
f 335/1/6 333/1/6 336/1/6
f 331/10/6 335/10/6 337/10/6
f 335/10/6 336/10/6 337/10/6
f 336/10/6 334/10/6 338/10/6
f 337/10/6 336/10/6 338/10/6
