# MagicaVoxel @ Ephtracy

# group
o 

# material
mtllib rioboo-0.mtl
usemtl palette

# normals
vn -1 0 0
vn 1 0 0
vn 0 0 1
vn 0 0 -1
vn 0 -1 0
vn 0 1 0

# texcoords
vt 0.0136719 0.5
vt 0.0683594 0.5
vt 0.369141 0.5
vt 0.533203 0.5
vt 0.603516 0.5
vt 0.767578 0.5
vt 0.810547 0.5
vt 0.865234 0.5
vt 0.958984 0.5
vt 0.962891 0.5
vt 0.994141 0.5

# verts
v -0.5 0.3 0.2
v -0.5 0.3 0
v -0.5 0.4 0.2
v -0.5 0.4 0.1
v -0.5 0.4 0
v -0.5 0.4 -0.1
v -0.5 0.5 0.1
v -0.5 0.5 -0.1
v -0.4 0.5 0
v -0.4 0.5 -0.1
v -0.4 0.5 -0.2
v -0.4 0.6 0
v -0.4 0.6 -0.2
v -0.3 0 -0.1
v -0.3 0 -0.3
v -0.3 0.1 -0.1
v -0.3 0.1 -0.3
v -0.3 0.2 0.1
v -0.3 0.2 -0.1
v -0.3 0.3 0.1
v -0.3 0.3 -0.3
v -0.3 0.5 0
v -0.3 0.5 -0.2
v -0.3 0.6 0.1
v -0.3 0.6 0
v -0.3 0.6 -0.2
v -0.3 0.6 -0.3
v -0.2 0.5 0.3
v -0.2 0.5 0.1
v -0.2 0.6 0.3
v -0.2 0.6 0.2
v -0.2 0.6 0.1
v -0.2 0.6 -0.1
v -0.2 0.7 0.3
v -0.2 0.7 0.2
v -0.2 0.8 0.3
v -0.2 0.8 -0.1
v -0.2 0.9 0.3
v -0.2 0.9 -0.1
v -0.1 0.6 0.4
v -0.1 0.6 0.3
v -0.1 0.7 0.4
v -0.1 0.7 0.3
v 0.1 0 0.1
v 0.1 0 -0.1
v 0.1 0.1 0.1
v 0.1 0.1 -0.1
v 0.1 0.2 0.1
v 0.1 0.2 -0.1
v 0.4 0 0
v 0.4 0 -0.1
v 0.4 0.3 0
v 0.4 0.3 -0.1
v 0.4 0.3 -0.2
v 0.4 0.4 0
v 0.4 0.4 -0.2
v 0.4 0.5 0
v 0.4 0.5 -0.2
v -0.4 0.3 0.2
v -0.4 0.3 0
v -0.4 0.4 0.2
v -0.4 0.4 0.1
v -0.4 0.4 0
v -0.4 0.4 -0.1
v -0.4 0.5 0.1
v -0.4 0.5 0
v -0.4 0.5 -0.1
v -0.1 0 -0.1
v -0.1 0 -0.3
v -0.1 0.1 -0.1
v -0.1 0.1 -0.3
v -0.1 0.2 -0.1
v -0.1 0.2 -0.3
v 0.1 0.6 0.4
v 0.1 0.6 0.3
v 0.1 0.7 0.4
v 0.1 0.7 0.3
v 0.2 0.5 0.3
v 0.2 0.5 0.1
v 0.2 0.6 0.3
v 0.2 0.6 0.2
v 0.2 0.6 0.1
v 0.2 0.6 -0.1
v 0.2 0.7 0.3
v 0.2 0.7 0.2
v 0.2 0.8 0.3
v 0.2 0.8 -0.1
v 0.2 0.9 0.3
v 0.2 0.9 -0.1
v 0.3 0 0.1
v 0.3 0 -0.1
v 0.3 0.1 0.1
v 0.3 0.1 -0.1
v 0.3 0.2 -0.1
v 0.3 0.2 -0.3
v 0.3 0.3 0.1
v 0.3 0.3 -0.3
v 0.3 0.5 0
v 0.3 0.5 -0.2
v 0.3 0.6 0.1
v 0.3 0.6 0
v 0.3 0.6 -0.2
v 0.3 0.6 -0.3
v 0.4 0.5 0
v 0.4 0.5 -0.2
v 0.4 0.6 0
v 0.4 0.6 -0.2
v 0.5 0 0
v 0.5 0 -0.1
v 0.5 0.3 0
v 0.5 0.3 -0.1
v 0.5 0.3 -0.2
v 0.5 0.4 0
v 0.5 0.4 -0.2
v 0.5 0.5 0
v 0.5 0.5 -0.2
v -0.1 0.6 0.4
v -0.1 0.7 0.4
v 0.1 0.6 0.4
v 0.1 0.7 0.4
v -0.2 0.5 0.3
v -0.2 0.6 0.3
v -0.2 0.7 0.3
v -0.2 0.8 0.3
v -0.2 0.9 0.3
v -0.1 0.6 0.3
v -0.1 0.7 0.3
v -0.1 0.8 0.3
v -0.1 0.9 0.3
v 0.1 0.6 0.3
v 0.1 0.7 0.3
v 0.1 0.8 0.3
v 0.1 0.9 0.3
v 0.2 0.5 0.3
v 0.2 0.6 0.3
v 0.2 0.7 0.3
v 0.2 0.8 0.3
v 0.2 0.9 0.3
v -0.5 0.3 0.2
v -0.5 0.4 0.2
v -0.4 0.3 0.2
v -0.4 0.4 0.2
v -0.5 0.4 0.1
v -0.5 0.5 0.1
v -0.4 0.4 0.1
v -0.4 0.5 0.1
v -0.3 0.2 0.1
v -0.3 0.3 0.1
v -0.3 0.6 0.1
v -0.2 0.3 0.1
v -0.2 0.5 0.1
v -0.2 0.6 0.1
v -0.1 0.3 0.1
v -0.1 0.5 0.1
v 0.1 0 0.1
v 0.1 0.1 0.1
v 0.1 0.2 0.1
v 0.1 0.3 0.1
v 0.1 0.5 0.1
v 0.2 0.3 0.1
v 0.2 0.5 0.1
v 0.2 0.6 0.1
v 0.3 0 0.1
v 0.3 0.1 0.1
v 0.3 0.3 0.1
v 0.3 0.6 0.1
v -0.4 0.5 0
v -0.4 0.6 0
v -0.3 0.5 0
v -0.3 0.6 0
v 0.3 0.5 0
v 0.3 0.6 0
v 0.4 0 0
v 0.4 0.3 0
v 0.4 0.4 0
v 0.4 0.5 0
v 0.4 0.6 0
v 0.5 0 0
v 0.5 0.3 0
v 0.5 0.4 0
v 0.5 0.5 0
v -0.3 0 -0.1
v -0.3 0.1 -0.1
v -0.3 0.2 -0.1
v -0.1 0 -0.1
v -0.1 0.1 -0.1
v -0.1 0.2 -0.1
v -0.5 0.3 0
v -0.5 0.4 0
v -0.4 0.3 0
v -0.4 0.4 0
v -0.5 0.4 -0.1
v -0.5 0.5 -0.1
v -0.4 0.4 -0.1
v -0.4 0.5 -0.1
v -0.2 0.6 -0.1
v -0.2 0.8 -0.1
v -0.2 0.9 -0.1
v -0.1 0.6 -0.1
v 0.1 0 -0.1
v 0.1 0.1 -0.1
v 0.1 0.2 -0.1
v 0.1 0.6 -0.1
v 0.2 0.6 -0.1
v 0.2 0.8 -0.1
v 0.2 0.9 -0.1
v 0.3 0 -0.1
v 0.3 0.1 -0.1
v 0.3 0.2 -0.1
v 0.4 0 -0.1
v 0.4 0.3 -0.1
v 0.5 0 -0.1
v 0.5 0.3 -0.1
v -0.4 0.5 -0.2
v -0.4 0.6 -0.2
v -0.3 0.5 -0.2
v -0.3 0.6 -0.2
v 0.3 0.5 -0.2
v 0.3 0.6 -0.2
v 0.4 0.3 -0.2
v 0.4 0.4 -0.2
v 0.4 0.5 -0.2
v 0.4 0.6 -0.2
v 0.5 0.3 -0.2
v 0.5 0.4 -0.2
v 0.5 0.5 -0.2
v -0.3 0 -0.3
v -0.3 0.1 -0.3
v -0.3 0.3 -0.3
v -0.3 0.6 -0.3
v -0.2 0.3 -0.3
v -0.2 0.6 -0.3
v -0.1 0 -0.3
v -0.1 0.1 -0.3
v -0.1 0.2 -0.3
v -0.1 0.3 -0.3
v -0.1 0.6 -0.3
v 0.1 0.3 -0.3
v 0.1 0.6 -0.3
v 0.2 0.3 -0.3
v 0.2 0.6 -0.3
v 0.3 0.2 -0.3
v 0.3 0.3 -0.3
v 0.3 0.6 -0.3
v 0.1 0 0.1
v 0.3 0 0.1
v 0.4 0 0
v 0.5 0 0
v -0.3 0 -0.1
v -0.1 0 -0.1
v 0.1 0 -0.1
v 0.3 0 -0.1
v 0.4 0 -0.1
v 0.5 0 -0.1
v -0.3 0 -0.3
v -0.1 0 -0.3
v -0.3 0.2 0.1
v 0.1 0.2 0.1
v -0.3 0.2 -0.1
v -0.1 0.2 -0.1
v 0.1 0.2 -0.1
v 0.3 0.2 -0.1
v -0.1 0.2 -0.3
v 0.3 0.2 -0.3
v -0.5 0.3 0.2
v -0.4 0.3 0.2
v -0.5 0.3 0
v -0.4 0.3 0
v 0.4 0.3 -0.1
v 0.5 0.3 -0.1
v 0.4 0.3 -0.2
v 0.5 0.3 -0.2
v -0.5 0.4 0
v -0.4 0.4 0
v -0.5 0.4 -0.1
v -0.4 0.4 -0.1
v -0.2 0.5 0.3
v 0.2 0.5 0.3
v -0.2 0.5 0.1
v -0.1 0.5 0.1
v 0.1 0.5 0.1
v 0.2 0.5 0.1
v -0.4 0.5 0
v -0.3 0.5 0
v 0.3 0.5 0
v 0.4 0.5 0
v -0.4 0.5 -0.1
v -0.4 0.5 -0.2
v -0.3 0.5 -0.2
v 0.3 0.5 -0.2
v 0.4 0.5 -0.2
v -0.1 0.6 0.4
v 0.1 0.6 0.4
v -0.1 0.6 0.3
v 0.1 0.6 0.3
v -0.5 0.4 0.2
v -0.4 0.4 0.2
v -0.5 0.4 0.1
v -0.4 0.4 0.1
v -0.5 0.5 0.1
v -0.4 0.5 0.1
v -0.4 0.5 0
v 0.4 0.5 0
v 0.5 0.5 0
v -0.5 0.5 -0.1
v -0.4 0.5 -0.1
v 0.4 0.5 -0.2
v 0.5 0.5 -0.2
v -0.3 0.6 0.1
v -0.2 0.6 0.1
v 0.2 0.6 0.1
v 0.3 0.6 0.1
v -0.4 0.6 0
v -0.3 0.6 0
v 0.3 0.6 0
v 0.4 0.6 0
v -0.2 0.6 -0.1
v -0.1 0.6 -0.1
v 0.1 0.6 -0.1
v 0.2 0.6 -0.1
v -0.4 0.6 -0.2
v -0.3 0.6 -0.2
v 0.3 0.6 -0.2
v 0.4 0.6 -0.2
v -0.3 0.6 -0.3
v -0.2 0.6 -0.3
v -0.1 0.6 -0.3
v 0.1 0.6 -0.3
v 0.2 0.6 -0.3
v 0.3 0.6 -0.3
v -0.1 0.7 0.4
v 0.1 0.7 0.4
v -0.1 0.7 0.3
v 0.1 0.7 0.3
v -0.2 0.9 0.3
v -0.1 0.9 0.3
v 0.1 0.9 0.3
v 0.2 0.9 0.3
v -0.1 0.9 0
v 0.1 0.9 0
v -0.2 0.9 -0.1
v 0.2 0.9 -0.1

# faces
f 3/1/1 2/1/1 1/1/1
f 4/1/1 2/1/1 3/1/1
f 5/1/1 2/1/1 4/1/1
f 7/9/1 6/9/1 5/9/1
f 7/9/1 5/9/1 4/9/1
f 8/9/1 6/9/1 7/9/1
f 12/9/1 10/9/1 9/9/1
f 12/9/1 11/9/1 10/9/1
f 13/9/1 11/9/1 12/9/1
f 16/3/1 15/3/1 14/3/1
f 17/3/1 15/3/1 16/3/1
f 19/7/1 17/7/1 16/7/1
f 20/7/1 19/7/1 18/7/1
f 21/7/1 17/7/1 19/7/1
f 21/7/1 19/7/1 20/7/1
f 22/9/1 21/9/1 20/9/1
f 23/9/1 21/9/1 22/9/1
f 24/9/1 22/9/1 20/9/1
f 25/9/1 22/9/1 24/9/1
f 26/9/1 21/9/1 23/9/1
f 27/9/1 21/9/1 26/9/1
f 30/1/1 29/1/1 28/1/1
f 31/1/1 29/1/1 30/1/1
f 32/1/1 29/1/1 31/1/1
f 34/11/1 31/11/1 30/11/1
f 35/1/1 33/1/1 32/1/1
f 35/11/1 31/11/1 34/11/1
f 35/1/1 32/1/1 31/1/1
f 36/1/1 35/1/1 34/1/1
f 37/1/1 33/1/1 35/1/1
f 37/1/1 35/1/1 36/1/1
f 38/10/1 37/10/1 36/10/1
f 39/10/1 37/10/1 38/10/1
f 42/3/1 41/3/1 40/3/1
f 43/3/1 41/3/1 42/3/1
f 46/3/1 45/3/1 44/3/1
f 47/3/1 45/3/1 46/3/1
f 48/7/1 47/7/1 46/7/1
f 49/7/1 47/7/1 48/7/1
f 52/8/1 51/8/1 50/8/1
f 53/8/1 51/8/1 52/8/1
f 55/1/1 53/1/1 52/1/1
f 55/1/1 54/1/1 53/1/1
f 56/1/1 54/1/1 55/1/1
f 57/9/1 56/9/1 55/9/1
f 58/9/1 56/9/1 57/9/1
f 59/1/2 60/1/2 61/1/2
f 61/1/2 60/1/2 62/1/2
f 62/1/2 60/1/2 63/1/2
f 63/9/2 64/9/2 65/9/2
f 62/9/2 63/9/2 65/9/2
f 65/9/2 64/9/2 66/9/2
f 66/9/2 64/9/2 67/9/2
f 68/3/2 69/3/2 70/3/2
f 70/3/2 69/3/2 71/3/2
f 70/7/2 71/7/2 72/7/2
f 72/7/2 71/7/2 73/7/2
f 74/3/2 75/3/2 76/3/2
f 76/3/2 75/3/2 77/3/2
f 78/1/2 79/1/2 80/1/2
f 80/1/2 79/1/2 81/1/2
f 81/1/2 79/1/2 82/1/2
f 80/11/2 81/11/2 84/11/2
f 82/1/2 83/1/2 85/1/2
f 84/11/2 81/11/2 85/11/2
f 81/1/2 82/1/2 85/1/2
f 84/1/2 85/1/2 86/1/2
f 85/1/2 83/1/2 87/1/2
f 86/1/2 85/1/2 87/1/2
f 86/10/2 87/10/2 88/10/2
f 88/10/2 87/10/2 89/10/2
f 90/3/2 91/3/2 92/3/2
f 92/3/2 91/3/2 93/3/2
f 92/7/2 93/7/2 94/7/2
f 92/7/2 94/7/2 96/7/2
f 94/7/2 95/7/2 96/7/2
f 96/7/2 95/7/2 97/7/2
f 96/9/2 97/9/2 98/9/2
f 98/9/2 97/9/2 99/9/2
f 96/9/2 98/9/2 100/9/2
f 100/9/2 98/9/2 101/9/2
f 99/9/2 97/9/2 102/9/2
f 102/9/2 97/9/2 103/9/2
f 104/9/2 105/9/2 106/9/2
f 106/9/2 105/9/2 107/9/2
f 108/8/2 109/8/2 110/8/2
f 110/8/2 109/8/2 111/8/2
f 110/1/2 111/1/2 113/1/2
f 111/1/2 112/1/2 113/1/2
f 113/1/2 112/1/2 114/1/2
f 113/9/2 114/9/2 115/9/2
f 115/9/2 114/9/2 116/9/2
f 119/3/3 118/3/3 117/3/3
f 120/3/3 118/3/3 119/3/3
f 126/1/3 122/1/3 121/1/3
f 126/11/3 123/11/3 122/11/3
f 127/1/3 124/1/3 123/1/3
f 127/11/3 123/11/3 126/11/3
f 128/10/3 125/10/3 124/10/3
f 128/1/3 124/1/3 127/1/3
f 129/10/3 125/10/3 128/10/3
f 130/1/3 126/1/3 121/1/3
f 131/1/3 129/1/3 128/1/3
f 131/1/3 128/1/3 127/1/3
f 132/1/3 129/1/3 131/1/3
f 133/1/3 129/1/3 132/1/3
f 134/1/3 130/1/3 121/1/3
f 135/11/3 131/11/3 130/11/3
f 135/1/3 130/1/3 134/1/3
f 136/1/3 132/1/3 131/1/3
f 136/11/3 131/11/3 135/11/3
f 137/10/3 133/10/3 132/10/3
f 137/1/3 132/1/3 136/1/3
f 138/10/3 133/10/3 137/10/3
f 141/1/3 140/1/3 139/1/3
f 142/1/3 140/1/3 141/1/3
f 145/9/3 144/9/3 143/9/3
f 146/9/3 144/9/3 145/9/3
f 150/7/3 148/7/3 147/7/3
f 150/9/3 149/9/3 148/9/3
f 151/9/3 149/9/3 150/9/3
f 152/9/3 149/9/3 151/9/3
f 153/7/3 150/7/3 147/7/3
f 153/4/3 151/4/3 150/4/3
f 154/4/3 151/4/3 153/4/3
f 157/7/3 153/7/3 147/7/3
f 158/9/3 154/9/3 153/9/3
f 158/7/3 153/7/3 157/7/3
f 159/9/3 154/9/3 158/9/3
f 160/7/3 157/7/3 156/7/3
f 160/7/3 158/7/3 157/7/3
f 160/4/3 159/4/3 158/4/3
f 161/4/3 159/4/3 160/4/3
f 163/3/3 156/3/3 155/3/3
f 164/7/3 160/7/3 156/7/3
f 164/3/3 156/3/3 163/3/3
f 165/9/3 162/9/3 161/9/3
f 165/7/3 160/7/3 164/7/3
f 165/9/3 161/9/3 160/9/3
f 166/9/3 162/9/3 165/9/3
f 169/9/3 168/9/3 167/9/3
f 170/9/3 168/9/3 169/9/3
f 176/9/3 172/9/3 171/9/3
f 177/9/3 172/9/3 176/9/3
f 178/8/3 174/8/3 173/8/3
f 179/1/3 175/1/3 174/1/3
f 179/8/3 174/8/3 178/8/3
f 180/9/3 176/9/3 175/9/3
f 180/1/3 175/1/3 179/1/3
f 181/9/3 176/9/3 180/9/3
f 185/3/3 183/3/3 182/3/3
f 186/7/3 184/7/3 183/7/3
f 186/3/3 183/3/3 185/3/3
f 187/7/3 184/7/3 186/7/3
f 188/1/4 189/1/4 190/1/4
f 190/1/4 189/1/4 191/1/4
f 192/9/4 193/9/4 194/9/4
f 194/9/4 193/9/4 195/9/4
f 196/1/4 197/1/4 199/1/4
f 199/1/4 197/1/4 203/1/4
f 203/1/4 197/1/4 204/1/4
f 197/10/4 198/10/4 205/10/4
f 204/1/4 197/1/4 205/1/4
f 205/10/4 198/10/4 206/10/4
f 200/3/4 201/3/4 207/3/4
f 201/7/4 202/7/4 208/7/4
f 207/3/4 201/3/4 208/3/4
f 208/7/4 202/7/4 209/7/4
f 210/8/4 211/8/4 212/8/4
f 212/8/4 211/8/4 213/8/4
f 214/9/4 215/9/4 216/9/4
f 216/9/4 215/9/4 217/9/4
f 218/9/4 219/9/4 222/9/4
f 222/9/4 219/9/4 223/9/4
f 220/1/4 221/1/4 224/1/4
f 221/9/4 222/9/4 225/9/4
f 224/1/4 221/1/4 225/1/4
f 225/9/4 222/9/4 226/9/4
f 228/7/4 229/7/4 231/7/4
f 229/9/4 230/9/4 231/9/4
f 231/9/4 230/9/4 232/9/4
f 227/3/4 228/3/4 233/3/4
f 228/7/4 231/7/4 234/7/4
f 233/3/4 228/3/4 234/3/4
f 234/7/4 231/7/4 235/7/4
f 231/4/4 232/4/4 236/4/4
f 235/7/4 231/7/4 236/7/4
f 236/4/4 232/4/4 237/4/4
f 236/9/4 237/9/4 238/9/4
f 235/7/4 236/7/4 238/7/4
f 238/9/4 237/9/4 239/9/4
f 235/7/4 238/7/4 240/7/4
f 238/4/4 239/4/4 240/4/4
f 240/4/4 239/4/4 241/4/4
f 235/7/4 240/7/4 242/7/4
f 240/9/4 241/9/4 243/9/4
f 242/7/4 240/7/4 243/7/4
f 243/9/4 241/9/4 244/9/4
f 251/3/5 246/3/5 245/3/5
f 252/3/5 246/3/5 251/3/5
f 253/8/5 248/8/5 247/8/5
f 254/8/5 248/8/5 253/8/5
f 255/3/5 250/3/5 249/3/5
f 256/3/5 250/3/5 255/3/5
f 259/7/5 258/7/5 257/7/5
f 260/7/5 258/7/5 259/7/5
f 261/7/5 258/7/5 260/7/5
f 263/7/5 262/7/5 261/7/5
f 263/7/5 261/7/5 260/7/5
f 264/7/5 262/7/5 263/7/5
f 267/1/5 266/1/5 265/1/5
f 268/1/5 266/1/5 267/1/5
f 271/1/5 270/1/5 269/1/5
f 272/1/5 270/1/5 271/1/5
f 275/9/5 274/9/5 273/9/5
f 276/9/5 274/9/5 275/9/5
f 279/1/5 278/1/5 277/1/5
f 280/1/5 278/1/5 279/1/5
f 281/1/5 278/1/5 280/1/5
f 282/1/5 278/1/5 281/1/5
f 287/9/5 284/9/5 283/9/5
f 288/9/5 284/9/5 287/9/5
f 289/9/5 284/9/5 288/9/5
f 290/9/5 286/9/5 285/9/5
f 291/9/5 286/9/5 290/9/5
f 294/3/5 293/3/5 292/3/5
f 295/3/5 293/3/5 294/3/5
f 296/1/6 297/1/6 298/1/6
f 298/1/6 297/1/6 299/1/6
f 300/9/6 301/9/6 302/9/6
f 300/9/6 302/9/6 305/9/6
f 305/9/6 302/9/6 306/9/6
f 303/9/6 304/9/6 307/9/6
f 307/9/6 304/9/6 308/9/6
f 309/9/6 310/9/6 314/9/6
f 311/9/6 312/9/6 315/9/6
f 313/9/6 314/9/6 317/9/6
f 314/9/6 310/9/6 317/9/6
f 315/9/6 316/9/6 320/9/6
f 311/9/6 315/9/6 320/9/6
f 313/9/6 317/9/6 321/9/6
f 321/9/6 317/9/6 322/9/6
f 320/9/6 316/9/6 323/9/6
f 323/9/6 316/9/6 324/9/6
f 322/9/6 317/9/6 325/9/6
f 317/4/6 318/4/6 326/4/6
f 325/9/6 317/9/6 326/9/6
f 318/9/6 319/9/6 327/9/6
f 326/4/6 318/4/6 327/4/6
f 319/4/6 320/4/6 328/4/6
f 327/9/6 319/9/6 328/9/6
f 320/9/6 323/9/6 329/9/6
f 328/4/6 320/4/6 329/4/6
f 329/9/6 323/9/6 330/9/6
f 331/3/6 332/3/6 333/3/6
f 333/3/6 332/3/6 334/3/6
f 335/10/6 336/10/6 339/10/6
f 336/1/6 337/1/6 339/1/6
f 337/10/6 338/10/6 340/10/6
f 339/1/6 337/1/6 340/1/6
f 335/10/6 339/10/6 341/10/6
f 339/10/6 340/10/6 341/10/6
f 340/10/6 338/10/6 342/10/6
f 341/10/6 340/10/6 342/10/6
