# MagicaVoxel @ Ephtracy

# group
o 

# material
mtllib titi-1.mtl
usemtl palette

# normals
vn -1 0 0
vn 1 0 0
vn 0 0 1
vn 0 0 -1
vn 0 -1 0
vn 0 1 0

# texcoords
vt 0.0136719 0.5
vt 0.0332031 0.5
vt 0.0683594 0.5
vt 0.369141 0.5
vt 0.603516 0.5
vt 0.767578 0.5
vt 0.810547 0.5
vt 0.958984 0.5
vt 0.994141 0.5

# verts
v -0.4 0.3 -0.1
v -0.4 0.3 -0.3
v -0.4 0.5 -0.1
v -0.4 0.5 -0.3
v -0.3 0.5 -1.49012e-08
v -0.3 0.5 -0.1
v -0.3 0.5 -0.2
v -0.3 0.6 -1.49012e-08
v -0.3 0.6 -0.2
v -0.3 1 -1.49012e-08
v -0.3 1 -0.1
v -0.3 1.2 -1.49012e-08
v -0.3 1.2 -0.1
v -0.2 0 0.1
v -0.2 0 -0.1
v -0.2 0.1 0.1
v -0.2 0.1 -0.1
v -0.2 0.2 -0.1
v -0.2 0.2 -0.3
v -0.2 0.3 0.1
v -0.2 0.3 -0.3
v -0.2 0.5 -1.49012e-08
v -0.2 0.5 -0.2
v -0.2 0.6 0.1
v -0.2 0.6 -1.49012e-08
v -0.2 0.6 -0.2
v -0.2 0.6 -0.3
v -0.2 0.8 0.1
v -0.2 0.8 -1.49012e-08
v -0.2 0.8 -0.3
v -0.2 0.9 0.1
v -0.2 0.9 -1.49012e-08
v -0.2 1 0.1
v -0.2 1 -1.49012e-08
v -0.2 1 -0.1
v -0.2 1.2 -1.49012e-08
v -0.2 1.2 -0.1
v -0.2 1.3 0.1
v -0.2 1.3 -1.49012e-08
v -0.2 1.3 -0.2
v -0.2 1.3 -0.3
v -0.2 1.4 -1.49012e-08
v -0.2 1.4 -0.2
v -0.1 0.6 -1.49012e-08
v -0.1 0.6 -0.2
v -0.1 0.8 -1.49012e-08
v -0.1 0.8 -0.2
v -0.1 1.3 0.1
v -0.1 1.3 -1.49012e-08
v -0.1 1.3 -0.2
v -0.1 1.3 -0.3
v -0.1 1.4 0.1
v -0.1 1.4 -1.49012e-08
v -0.1 1.4 -0.2
v -0.1 1.4 -0.3
v 0.1 0 -0.1
v 0.1 0 -0.3
v 0.1 0.1 -0.1
v 0.1 0.1 -0.3
v 0.1 0.2 -0.1
v 0.1 0.2 -0.3
v 0.1 1.1 -1.49012e-08
v 0.1 1.1 -0.2
v 0.1 1.2 -1.49012e-08
v 0.1 1.2 -0.2
v 0.3 0.3 0.1
v 0.3 0.3 -0.1
v 0.3 0.5 0.1
v 0.3 0.5 -1.49012e-08
v 0.3 0.5 -0.1
v -0.3 0.3 -0.1
v -0.3 0.3 -0.3
v -0.3 0.5 -0.1
v -0.3 0.5 -0.2
v -0.3 0.5 -0.3
v -0.2 1.1 -1.49012e-08
v -0.2 1.1 -0.1
v -0.2 1.2 -1.49012e-08
v -0.2 1.2 -0.1
v -0.1 0 0.1
v -0.1 0 -0.1
v -0.1 0.1 0.1
v -0.1 0.1 -0.1
v -0.1 0.2 0.1
v -0.1 0.2 -0.1
v -0.1 1.1 -0.1
v -0.1 1.1 -0.2
v -0.1 1.2 -0.1
v -0.1 1.2 -0.2
v 0.1 0.6 -1.49012e-08
v 0.1 0.6 -0.2
v 0.1 0.8 -1.49012e-08
v 0.1 0.8 -0.2
v 0.1 1.3 0.1
v 0.1 1.3 -1.49012e-08
v 0.1 1.3 -0.2
v 0.1 1.3 -0.3
v 0.1 1.4 0.1
v 0.1 1.4 -1.49012e-08
v 0.1 1.4 -0.2
v 0.1 1.4 -0.3
v 0.2 0 -0.1
v 0.2 0 -0.3
v 0.2 0.1 -0.1
v 0.2 0.1 -0.3
v 0.2 0.2 0.1
v 0.2 0.2 -0.1
v 0.2 0.3 0.1
v 0.2 0.3 -0.3
v 0.2 0.5 -1.49012e-08
v 0.2 0.5 -0.2
v 0.2 0.6 0.1
v 0.2 0.6 -1.49012e-08
v 0.2 0.6 -0.2
v 0.2 0.6 -0.3
v 0.2 0.8 0.1
v 0.2 0.8 -1.49012e-08
v 0.2 0.8 -0.3
v 0.2 0.9 0.1
v 0.2 0.9 -1.49012e-08
v 0.2 1 0.1
v 0.2 1 -1.49012e-08
v 0.2 1 -0.1
v 0.2 1.2 -1.49012e-08
v 0.2 1.2 -0.1
v 0.2 1.3 0.1
v 0.2 1.3 -1.49012e-08
v 0.2 1.3 -0.2
v 0.2 1.3 -0.3
v 0.2 1.4 -1.49012e-08
v 0.2 1.4 -0.2
v 0.3 0.5 -1.49012e-08
v 0.3 0.5 -0.1
v 0.3 0.5 -0.2
v 0.3 0.6 -1.49012e-08
v 0.3 0.6 -0.2
v 0.3 1 -1.49012e-08
v 0.3 1 -0.1
v 0.3 1.2 -1.49012e-08
v 0.3 1.2 -0.1
v 0.4 0.3 0.1
v 0.4 0.3 -0.1
v 0.4 0.5 0.1
v 0.4 0.5 -0.1
v -0.2 0 0.1
v -0.2 0.1 0.1
v -0.2 0.3 0.1
v -0.2 0.6 0.1
v -0.2 0.8 0.1
v -0.2 0.9 0.1
v -0.2 1 0.1
v -0.2 1.3 0.1
v -0.1 0 0.1
v -0.1 0.1 0.1
v -0.1 0.2 0.1
v -0.1 0.9 0.1
v -0.1 1 0.1
v -0.1 1.1 0.1
v -0.1 1.3 0.1
v -0.1 1.4 0.1
v 0 1 0.1
v 0 1.1 0.1
v 0.1 0.9 0.1
v 0.1 1 0.1
v 0.1 1.3 0.1
v 0.1 1.4 0.1
v 0.2 0.2 0.1
v 0.2 0.3 0.1
v 0.2 0.6 0.1
v 0.2 0.8 0.1
v 0.2 0.9 0.1
v 0.2 1 0.1
v 0.2 1.3 0.1
v 0.3 0.3 0.1
v 0.3 0.5 0.1
v 0.4 0.3 0.1
v 0.4 0.5 0.1
v -0.3 0.5 -1.49012e-08
v -0.3 0.6 -1.49012e-08
v -0.3 1 -1.49012e-08
v -0.3 1.2 -1.49012e-08
v -0.2 0.5 -1.49012e-08
v -0.2 0.6 -1.49012e-08
v -0.2 1 -1.49012e-08
v -0.2 1.2 -1.49012e-08
v -0.2 1.3 -1.49012e-08
v -0.2 1.4 -1.49012e-08
v -0.1 0.6 -1.49012e-08
v -0.1 0.8 -1.49012e-08
v -0.1 1.3 -1.49012e-08
v -0.1 1.4 -1.49012e-08
v 0.1 0.6 -1.49012e-08
v 0.1 0.8 -1.49012e-08
v 0.1 1.3 -1.49012e-08
v 0.1 1.4 -1.49012e-08
v 0.2 0.5 -1.49012e-08
v 0.2 0.6 -1.49012e-08
v 0.2 1 -1.49012e-08
v 0.2 1.2 -1.49012e-08
v 0.2 1.3 -1.49012e-08
v 0.2 1.4 -1.49012e-08
v 0.3 0.5 -1.49012e-08
v 0.3 0.6 -1.49012e-08
v 0.3 1 -1.49012e-08
v 0.3 1.2 -1.49012e-08
v -0.4 0.3 -0.1
v -0.4 0.5 -0.1
v -0.3 0.3 -0.1
v -0.3 0.5 -0.1
v -0.2 1.1 -0.1
v -0.2 1.2 -0.1
v -0.1 1.1 -0.1
v -0.1 1.2 -0.1
v 0.1 0 -0.1
v 0.1 0.1 -0.1
v 0.1 0.2 -0.1
v 0.2 0 -0.1
v 0.2 0.1 -0.1
v 0.2 0.2 -0.1
v -0.1 1.1 -0.2
v -0.1 1.2 -0.2
v 0.1 1.1 -0.2
v 0.1 1.2 -0.2
v -0.2 1.1 -1.49012e-08
v -0.2 1.2 -1.49012e-08
v 0.1 1.1 -1.49012e-08
v 0.1 1.2 -1.49012e-08
v -0.3 1 -0.1
v -0.3 1.2 -0.1
v -0.2 0 -0.1
v -0.2 0.1 -0.1
v -0.2 0.2 -0.1
v -0.2 1 -0.1
v -0.2 1.2 -0.1
v -0.1 0 -0.1
v -0.1 0.1 -0.1
v -0.1 0.2 -0.1
v 0.2 1 -0.1
v 0.2 1.2 -0.1
v 0.3 0.3 -0.1
v 0.3 0.5 -0.1
v 0.3 1 -0.1
v 0.3 1.2 -0.1
v 0.4 0.3 -0.1
v 0.4 0.5 -0.1
v -0.3 0.5 -0.2
v -0.3 0.6 -0.2
v -0.2 0.5 -0.2
v -0.2 0.6 -0.2
v -0.2 1.3 -0.2
v -0.2 1.4 -0.2
v -0.1 0.6 -0.2
v -0.1 0.8 -0.2
v -0.1 1.3 -0.2
v -0.1 1.4 -0.2
v 0.1 0.6 -0.2
v 0.1 0.8 -0.2
v 0.1 1.3 -0.2
v 0.1 1.4 -0.2
v 0.2 0.5 -0.2
v 0.2 0.6 -0.2
v 0.2 1.3 -0.2
v 0.2 1.4 -0.2
v 0.3 0.5 -0.2
v 0.3 0.6 -0.2
v -0.4 0.3 -0.3
v -0.4 0.5 -0.3
v -0.3 0.3 -0.3
v -0.3 0.5 -0.3
v -0.2 0.2 -0.3
v -0.2 0.3 -0.3
v -0.2 0.6 -0.3
v -0.2 0.8 -0.3
v -0.2 1.3 -0.3
v -0.1 1.3 -0.3
v -0.1 1.4 -0.3
v 0.1 0 -0.3
v 0.1 0.1 -0.3
v 0.1 0.2 -0.3
v 0.1 1.3 -0.3
v 0.1 1.4 -0.3
v 0.2 0 -0.3
v 0.2 0.1 -0.3
v 0.2 0.3 -0.3
v 0.2 0.6 -0.3
v 0.2 0.8 -0.3
v 0.2 1.3 -0.3
v -0.2 0 0.1
v -0.1 0 0.1
v -0.2 0 -0.1
v -0.1 0 -0.1
v 0.1 0 -0.1
v 0.2 0 -0.1
v 0.1 0 -0.3
v 0.2 0 -0.3
v -0.1 0.2 0.1
v 0.2 0.2 0.1
v -0.2 0.2 -0.1
v -0.1 0.2 -0.1
v 0.1 0.2 -0.1
v 0.2 0.2 -0.1
v -0.2 0.2 -0.3
v 0.1 0.2 -0.3
v 0.3 0.3 0.1
v 0.4 0.3 0.1
v -0.4 0.3 -0.1
v -0.3 0.3 -0.1
v 0.3 0.3 -0.1
v 0.4 0.3 -0.1
v -0.4 0.3 -0.3
v -0.3 0.3 -0.3
v -0.3 0.5 -1.49012e-08
v -0.2 0.5 -1.49012e-08
v 0.2 0.5 -1.49012e-08
v 0.3 0.5 -1.49012e-08
v -0.3 0.5 -0.1
v 0.3 0.5 -0.1
v -0.3 0.5 -0.2
v -0.2 0.5 -0.2
v 0.2 0.5 -0.2
v 0.3 0.5 -0.2
v -0.2 0.8 0.1
v 0.2 0.8 0.1
v -0.2 0.8 -1.49012e-08
v -0.1 0.8 -1.49012e-08
v 0.1 0.8 -1.49012e-08
v 0.2 0.8 -1.49012e-08
v -0.1 0.8 -0.2
v 0.1 0.8 -0.2
v -0.2 0.8 -0.3
v 0.2 0.8 -0.3
v -0.3 1 -1.49012e-08
v -0.2 1 -1.49012e-08
v 0.2 1 -1.49012e-08
v 0.3 1 -1.49012e-08
v -0.3 1 -0.1
v -0.2 1 -0.1
v 0.2 1 -0.1
v 0.3 1 -0.1
v -0.2 1.2 -1.49012e-08
v 0.1 1.2 -1.49012e-08
v -0.2 1.2 -0.1
v -0.1 1.2 -0.1
v -0.1 1.2 -0.2
v 0.1 1.2 -0.2
v 0.3 0.5 0.1
v 0.4 0.5 0.1
v 0.3 0.5 -1.49012e-08
v -0.4 0.5 -0.1
v -0.3 0.5 -0.1
v 0.3 0.5 -0.1
v 0.4 0.5 -0.1
v -0.3 0.5 -0.2
v -0.4 0.5 -0.3
v -0.3 0.5 -0.3
v -0.2 0.6 0.1
v 0.2 0.6 0.1
v -0.3 0.6 -1.49012e-08
v -0.2 0.6 -1.49012e-08
v -0.1 0.6 -1.49012e-08
v 0.1 0.6 -1.49012e-08
v 0.2 0.6 -1.49012e-08
v 0.3 0.6 -1.49012e-08
v -0.3 0.6 -0.2
v -0.2 0.6 -0.2
v -0.1 0.6 -0.2
v 0.1 0.6 -0.2
v 0.2 0.6 -0.2
v 0.3 0.6 -0.2
v -0.2 0.6 -0.3
v 0.2 0.6 -0.3
v -0.2 1.1 -1.49012e-08
v 0.1 1.1 -1.49012e-08
v -0.2 1.1 -0.1
v -0.1 1.1 -0.1
v -0.1 1.1 -0.2
v 0.1 1.1 -0.2
v -0.3 1.2 -1.49012e-08
v -0.2 1.2 -1.49012e-08
v 0.2 1.2 -1.49012e-08
v 0.3 1.2 -1.49012e-08
v -0.3 1.2 -0.1
v -0.2 1.2 -0.1
v 0.2 1.2 -0.1
v 0.3 1.2 -0.1
v -0.2 1.3 0.1
v -0.1 1.3 0.1
v 0.1 1.3 0.1
v 0.2 1.3 0.1
v -0.2 1.3 -1.49012e-08
v -0.1 1.3 -1.49012e-08
v 0.1 1.3 -1.49012e-08
v 0.2 1.3 -1.49012e-08
v -0.2 1.3 -0.2
v -0.1 1.3 -0.2
v 0.1 1.3 -0.2
v 0.2 1.3 -0.2
v -0.2 1.3 -0.3
v -0.1 1.3 -0.3
v 0.1 1.3 -0.3
v 0.2 1.3 -0.3
v -0.1 1.4 0.1
v 0.1 1.4 0.1
v -0.2 1.4 -1.49012e-08
v -0.1 1.4 -1.49012e-08
v 0.1 1.4 -1.49012e-08
v 0.2 1.4 -1.49012e-08
v -0.2 1.4 -0.2
v -0.1 1.4 -0.2
v 0.1 1.4 -0.2
v 0.2 1.4 -0.2
v -0.1 1.4 -0.3
v 0.1 1.4 -0.3

# faces
f 3/1/1 2/1/1 1/1/1
f 4/1/1 2/1/1 3/1/1
f 8/8/1 6/8/1 5/8/1
f 8/8/1 7/8/1 6/8/1
f 9/8/1 7/8/1 8/8/1
f 12/1/1 11/1/1 10/1/1
f 13/1/1 11/1/1 12/1/1
f 16/4/1 15/4/1 14/4/1
f 17/4/1 15/4/1 16/4/1
f 18/7/1 17/7/1 16/7/1
f 20/7/1 18/7/1 16/7/1
f 20/7/1 19/7/1 18/7/1
f 21/7/1 19/7/1 20/7/1
f 22/8/1 21/8/1 20/8/1
f 23/8/1 21/8/1 22/8/1
f 24/8/1 22/8/1 20/8/1
f 25/8/1 22/8/1 24/8/1
f 26/8/1 21/8/1 23/8/1
f 27/8/1 21/8/1 26/8/1
f 31/2/1 29/2/1 28/2/1
f 32/1/1 30/1/1 29/1/1
f 32/2/1 29/2/1 31/2/1
f 33/9/1 32/9/1 31/9/1
f 34/1/1 30/1/1 32/1/1
f 34/9/1 32/9/1 33/9/1
f 35/1/1 30/1/1 34/1/1
f 36/1/1 34/1/1 33/1/1
f 37/1/1 30/1/1 35/1/1
f 38/1/1 36/1/1 33/1/1
f 38/1/1 37/1/1 36/1/1
f 39/1/1 37/1/1 38/1/1
f 40/1/1 30/1/1 37/1/1
f 40/1/1 37/1/1 39/1/1
f 41/1/1 30/1/1 40/1/1
f 42/1/1 40/1/1 39/1/1
f 43/1/1 40/1/1 42/1/1
f 46/1/1 45/1/1 44/1/1
f 47/1/1 45/1/1 46/1/1
f 52/1/1 49/1/1 48/1/1
f 53/1/1 49/1/1 52/1/1
f 54/1/1 51/1/1 50/1/1
f 55/1/1 51/1/1 54/1/1
f 58/4/1 57/4/1 56/4/1
f 59/4/1 57/4/1 58/4/1
f 60/7/1 59/7/1 58/7/1
f 61/7/1 59/7/1 60/7/1
f 64/1/1 63/1/1 62/1/1
f 65/1/1 63/1/1 64/1/1
f 68/1/1 67/1/1 66/1/1
f 69/1/1 67/1/1 68/1/1
f 70/1/1 67/1/1 69/1/1
f 71/1/2 72/1/2 73/1/2
f 73/1/2 72/1/2 74/1/2
f 74/1/2 72/1/2 75/1/2
f 76/1/2 77/1/2 78/1/2
f 78/1/2 77/1/2 79/1/2
f 80/4/2 81/4/2 82/4/2
f 82/4/2 81/4/2 83/4/2
f 82/7/2 83/7/2 84/7/2
f 84/7/2 83/7/2 85/7/2
f 86/1/2 87/1/2 88/1/2
f 88/1/2 87/1/2 89/1/2
f 90/1/2 91/1/2 92/1/2
f 92/1/2 91/1/2 93/1/2
f 94/1/2 95/1/2 98/1/2
f 98/1/2 95/1/2 99/1/2
f 96/1/2 97/1/2 100/1/2
f 100/1/2 97/1/2 101/1/2
f 102/4/2 103/4/2 104/4/2
f 104/4/2 103/4/2 105/4/2
f 104/7/2 105/7/2 107/7/2
f 106/7/2 107/7/2 108/7/2
f 107/7/2 105/7/2 109/7/2
f 108/7/2 107/7/2 109/7/2
f 108/8/2 109/8/2 110/8/2
f 110/8/2 109/8/2 111/8/2
f 108/8/2 110/8/2 112/8/2
f 112/8/2 110/8/2 113/8/2
f 111/8/2 109/8/2 114/8/2
f 114/8/2 109/8/2 115/8/2
f 116/2/2 117/2/2 119/2/2
f 117/1/2 118/1/2 120/1/2
f 119/2/2 117/2/2 120/2/2
f 119/9/2 120/9/2 121/9/2
f 120/1/2 118/1/2 122/1/2
f 121/9/2 120/9/2 122/9/2
f 122/1/2 118/1/2 123/1/2
f 121/1/2 122/1/2 124/1/2
f 123/1/2 118/1/2 125/1/2
f 121/1/2 124/1/2 126/1/2
f 124/1/2 125/1/2 126/1/2
f 126/1/2 125/1/2 127/1/2
f 125/1/2 118/1/2 128/1/2
f 127/1/2 125/1/2 128/1/2
f 128/1/2 118/1/2 129/1/2
f 127/1/2 128/1/2 130/1/2
f 130/1/2 128/1/2 131/1/2
f 132/8/2 133/8/2 135/8/2
f 133/8/2 134/8/2 135/8/2
f 135/8/2 134/8/2 136/8/2
f 137/1/2 138/1/2 139/1/2
f 139/1/2 138/1/2 140/1/2
f 141/1/2 142/1/2 143/1/2
f 143/1/2 142/1/2 144/1/2
f 153/4/3 146/4/3 145/4/3
f 154/7/3 147/7/3 146/7/3
f 154/4/3 146/4/3 153/4/3
f 155/7/3 147/7/3 154/7/3
f 156/2/3 150/2/3 149/2/3
f 156/9/3 151/9/3 150/9/3
f 157/1/3 152/1/3 151/1/3
f 157/9/3 151/9/3 156/9/3
f 158/1/3 152/1/3 157/1/3
f 159/1/3 152/1/3 158/1/3
f 161/2/3 157/2/3 156/2/3
f 161/2/3 158/2/3 157/2/3
f 162/1/3 160/1/3 159/1/3
f 162/2/3 158/2/3 161/2/3
f 162/1/3 159/1/3 158/1/3
f 163/2/3 156/2/3 149/2/3
f 163/2/3 161/2/3 156/2/3
f 164/1/3 162/1/3 161/1/3
f 164/2/3 161/2/3 163/2/3
f 165/1/3 160/1/3 162/1/3
f 165/1/3 162/1/3 164/1/3
f 166/1/3 160/1/3 165/1/3
f 167/7/3 147/7/3 155/7/3
f 168/8/3 148/8/3 147/8/3
f 168/7/3 147/7/3 167/7/3
f 169/8/3 148/8/3 168/8/3
f 170/2/3 163/2/3 149/2/3
f 171/9/3 164/9/3 163/9/3
f 171/2/3 163/2/3 170/2/3
f 172/1/3 165/1/3 164/1/3
f 172/9/3 164/9/3 171/9/3
f 173/1/3 165/1/3 172/1/3
f 176/1/3 175/1/3 174/1/3
f 177/1/3 175/1/3 176/1/3
f 182/8/3 179/8/3 178/8/3
f 183/8/3 179/8/3 182/8/3
f 184/1/3 181/1/3 180/1/3
f 185/1/3 181/1/3 184/1/3
f 190/1/3 187/1/3 186/1/3
f 191/1/3 187/1/3 190/1/3
f 192/1/3 189/1/3 188/1/3
f 193/1/3 189/1/3 192/1/3
f 200/1/3 195/1/3 194/1/3
f 201/1/3 195/1/3 200/1/3
f 202/8/3 197/8/3 196/8/3
f 203/8/3 197/8/3 202/8/3
f 204/1/3 199/1/3 198/1/3
f 205/1/3 199/1/3 204/1/3
f 208/1/3 207/1/3 206/1/3
f 209/1/3 207/1/3 208/1/3
f 212/1/3 211/1/3 210/1/3
f 213/1/3 211/1/3 212/1/3
f 217/4/3 215/4/3 214/4/3
f 218/7/3 216/7/3 215/7/3
f 218/4/3 215/4/3 217/4/3
f 219/7/3 216/7/3 218/7/3
f 222/1/3 221/1/3 220/1/3
f 223/1/3 221/1/3 222/1/3
f 224/1/4 225/1/4 226/1/4
f 226/1/4 225/1/4 227/1/4
f 228/1/4 229/1/4 233/1/4
f 233/1/4 229/1/4 234/1/4
f 230/4/4 231/4/4 235/4/4
f 231/7/4 232/7/4 236/7/4
f 235/4/4 231/4/4 236/4/4
f 236/7/4 232/7/4 237/7/4
f 238/1/4 239/1/4 242/1/4
f 242/1/4 239/1/4 243/1/4
f 240/1/4 241/1/4 244/1/4
f 244/1/4 241/1/4 245/1/4
f 246/8/4 247/8/4 248/8/4
f 248/8/4 247/8/4 249/8/4
f 250/1/4 251/1/4 254/1/4
f 254/1/4 251/1/4 255/1/4
f 252/1/4 253/1/4 256/1/4
f 256/1/4 253/1/4 257/1/4
f 258/1/4 259/1/4 262/1/4
f 262/1/4 259/1/4 263/1/4
f 260/8/4 261/8/4 264/8/4
f 264/8/4 261/8/4 265/8/4
f 266/1/4 267/1/4 268/1/4
f 268/1/4 267/1/4 269/1/4
f 273/1/4 274/1/4 275/1/4
f 270/7/4 271/7/4 279/7/4
f 273/1/4 275/1/4 280/1/4
f 275/1/4 276/1/4 280/1/4
f 280/1/4 276/1/4 281/1/4
f 277/4/4 278/4/4 282/4/4
f 278/7/4 279/7/4 283/7/4
f 282/4/4 278/4/4 283/4/4
f 271/8/4 272/8/4 284/8/4
f 283/7/4 279/7/4 284/7/4
f 279/7/4 271/7/4 284/7/4
f 284/8/4 272/8/4 285/8/4
f 273/1/4 280/1/4 286/1/4
f 286/1/4 280/1/4 287/1/4
f 290/4/5 289/4/5 288/4/5
f 291/4/5 289/4/5 290/4/5
f 294/4/5 293/4/5 292/4/5
f 295/4/5 293/4/5 294/4/5
f 299/7/5 297/7/5 296/7/5
f 300/7/5 297/7/5 299/7/5
f 301/7/5 297/7/5 300/7/5
f 302/7/5 299/7/5 298/7/5
f 302/7/5 300/7/5 299/7/5
f 303/7/5 300/7/5 302/7/5
f 308/1/5 305/1/5 304/1/5
f 309/1/5 305/1/5 308/1/5
f 310/1/5 307/1/5 306/1/5
f 311/1/5 307/1/5 310/1/5
f 316/8/5 313/8/5 312/8/5
f 317/8/5 315/8/5 314/8/5
f 318/8/5 313/8/5 316/8/5
f 319/8/5 313/8/5 318/8/5
f 320/8/5 317/8/5 314/8/5
f 321/8/5 317/8/5 320/8/5
f 324/2/5 323/2/5 322/2/5
f 325/2/5 323/2/5 324/2/5
f 326/2/5 323/2/5 325/2/5
f 327/2/5 323/2/5 326/2/5
f 328/1/5 325/1/5 324/1/5
f 329/1/5 327/1/5 326/1/5
f 330/1/5 328/1/5 324/1/5
f 330/1/5 329/1/5 328/1/5
f 331/1/5 327/1/5 329/1/5
f 331/1/5 329/1/5 330/1/5
f 336/1/5 333/1/5 332/1/5
f 337/1/5 333/1/5 336/1/5
f 338/1/5 335/1/5 334/1/5
f 339/1/5 335/1/5 338/1/5
f 342/1/5 341/1/5 340/1/5
f 343/1/5 341/1/5 342/1/5
f 344/1/5 341/1/5 343/1/5
f 345/1/5 341/1/5 344/1/5
f 346/1/6 347/1/6 348/1/6
f 348/1/6 347/1/6 351/1/6
f 351/1/6 347/1/6 352/1/6
f 349/1/6 350/1/6 353/1/6
f 349/1/6 353/1/6 354/1/6
f 354/1/6 353/1/6 355/1/6
f 356/8/6 357/8/6 359/8/6
f 359/8/6 357/8/6 360/8/6
f 360/8/6 357/8/6 361/8/6
f 361/8/6 357/8/6 362/8/6
f 358/8/6 359/8/6 364/8/6
f 359/8/6 360/8/6 364/8/6
f 364/8/6 360/8/6 365/8/6
f 365/8/6 360/8/6 366/8/6
f 362/8/6 363/8/6 367/8/6
f 361/8/6 362/8/6 367/8/6
f 367/8/6 363/8/6 368/8/6
f 368/8/6 363/8/6 369/8/6
f 365/8/6 366/8/6 370/8/6
f 367/8/6 368/8/6 370/8/6
f 366/8/6 367/8/6 370/8/6
f 370/8/6 368/8/6 371/8/6
f 372/3/6 373/3/6 374/3/6
f 374/3/6 373/3/6 375/3/6
f 375/3/6 373/3/6 376/3/6
f 376/3/6 373/3/6 377/3/6
f 378/1/6 379/1/6 382/1/6
f 382/1/6 379/1/6 383/1/6
f 380/1/6 381/1/6 384/1/6
f 384/1/6 381/1/6 385/1/6
f 386/1/6 387/1/6 390/1/6
f 390/1/6 387/1/6 391/1/6
f 388/1/6 389/1/6 392/1/6
f 392/1/6 389/1/6 393/1/6
f 394/1/6 395/1/6 398/1/6
f 398/1/6 395/1/6 399/1/6
f 396/1/6 397/1/6 400/1/6
f 400/1/6 397/1/6 401/1/6
f 402/1/6 403/1/6 405/1/6
f 405/1/6 403/1/6 406/1/6
f 404/1/6 405/1/6 408/1/6
f 406/1/6 407/1/6 408/1/6
f 405/1/6 406/1/6 408/1/6
f 408/1/6 407/1/6 409/1/6
f 409/1/6 407/1/6 410/1/6
f 410/1/6 407/1/6 411/1/6
f 409/1/6 410/1/6 412/1/6
f 412/1/6 410/1/6 413/1/6
